# Mirror ball: faceted UV sphere r=0.5 (18x12)
v 0.12941 0.48296 0.00000
v 0.12161 0.48296 0.04426
v 0.09913 0.48296 0.08318
v 0.06470 0.48296 0.11207
v 0.02247 0.48296 0.12744
v -0.02247 0.48296 0.12744
v -0.06470 0.48296 0.11207
v -0.09913 0.48296 0.08318
v -0.12161 0.48296 0.04426
v -0.12941 0.48296 0.00000
v -0.12161 0.48296 -0.04426
v -0.09913 0.48296 -0.08318
v -0.06470 0.48296 -0.11207
v -0.02247 0.48296 -0.12744
v 0.02247 0.48296 -0.12744
v 0.06470 0.48296 -0.11207
v 0.09913 0.48296 -0.08318
v 0.12161 0.48296 -0.04426
v 0.25000 0.43301 0.00000
v 0.23492 0.43301 0.08551
v 0.19151 0.43301 0.16070
v 0.12500 0.43301 0.21651
v 0.04341 0.43301 0.24620
v -0.04341 0.43301 0.24620
v -0.12500 0.43301 0.21651
v -0.19151 0.43301 0.16070
v -0.23492 0.43301 0.08551
v -0.25000 0.43301 0.00000
v -0.23492 0.43301 -0.08551
v -0.19151 0.43301 -0.16070
v -0.12500 0.43301 -0.21651
v -0.04341 0.43301 -0.24620
v 0.04341 0.43301 -0.24620
v 0.12500 0.43301 -0.21651
v 0.19151 0.43301 -0.16070
v 0.23492 0.43301 -0.08551
v 0.35355 0.35355 0.00000
v 0.33223 0.35355 0.12092
v 0.27084 0.35355 0.22726
v 0.17678 0.35355 0.30619
v 0.06139 0.35355 0.34818
v -0.06139 0.35355 0.34818
v -0.17678 0.35355 0.30619
v -0.27084 0.35355 0.22726
v -0.33223 0.35355 0.12092
v -0.35355 0.35355 0.00000
v -0.33223 0.35355 -0.12092
v -0.27084 0.35355 -0.22726
v -0.17678 0.35355 -0.30619
v -0.06139 0.35355 -0.34818
v 0.06139 0.35355 -0.34818
v 0.17678 0.35355 -0.30619
v 0.27084 0.35355 -0.22726
v 0.33223 0.35355 -0.12092
v 0.43301 0.25000 0.00000
v 0.40690 0.25000 0.14810
v 0.33171 0.25000 0.27834
v 0.21651 0.25000 0.37500
v 0.07519 0.25000 0.42643
v -0.07519 0.25000 0.42643
v -0.21651 0.25000 0.37500
v -0.33171 0.25000 0.27834
v -0.40690 0.25000 0.14810
v -0.43301 0.25000 0.00000
v -0.40690 0.25000 -0.14810
v -0.33171 0.25000 -0.27834
v -0.21651 0.25000 -0.37500
v -0.07519 0.25000 -0.42643
v 0.07519 0.25000 -0.42643
v 0.21651 0.25000 -0.37500
v 0.33171 0.25000 -0.27834
v 0.40690 0.25000 -0.14810
v 0.48296 0.12941 0.00000
v 0.45384 0.12941 0.16518
v 0.36997 0.12941 0.31044
v 0.24148 0.12941 0.41826
v 0.08387 0.12941 0.47563
v -0.08387 0.12941 0.47563
v -0.24148 0.12941 0.41826
v -0.36997 0.12941 0.31044
v -0.45384 0.12941 0.16518
v -0.48296 0.12941 0.00000
v -0.45384 0.12941 -0.16518
v -0.36997 0.12941 -0.31044
v -0.24148 0.12941 -0.41826
v -0.08387 0.12941 -0.47563
v 0.08387 0.12941 -0.47563
v 0.24148 0.12941 -0.41826
v 0.36997 0.12941 -0.31044
v 0.45384 0.12941 -0.16518
v 0.50000 0.00000 0.00000
v 0.46985 0.00000 0.17101
v 0.38302 0.00000 0.32139
v 0.25000 0.00000 0.43301
v 0.08682 0.00000 0.49240
v -0.08682 0.00000 0.49240
v -0.25000 0.00000 0.43301
v -0.38302 0.00000 0.32139
v -0.46985 0.00000 0.17101
v -0.50000 0.00000 0.00000
v -0.46985 0.00000 -0.17101
v -0.38302 0.00000 -0.32139
v -0.25000 0.00000 -0.43301
v -0.08682 0.00000 -0.49240
v 0.08682 0.00000 -0.49240
v 0.25000 0.00000 -0.43301
v 0.38302 0.00000 -0.32139
v 0.46985 0.00000 -0.17101
v 0.48296 -0.12941 0.00000
v 0.45384 -0.12941 0.16518
v 0.36997 -0.12941 0.31044
v 0.24148 -0.12941 0.41826
v 0.08387 -0.12941 0.47563
v -0.08387 -0.12941 0.47563
v -0.24148 -0.12941 0.41826
v -0.36997 -0.12941 0.31044
v -0.45384 -0.12941 0.16518
v -0.48296 -0.12941 0.00000
v -0.45384 -0.12941 -0.16518
v -0.36997 -0.12941 -0.31044
v -0.24148 -0.12941 -0.41826
v -0.08387 -0.12941 -0.47563
v 0.08387 -0.12941 -0.47563
v 0.24148 -0.12941 -0.41826
v 0.36997 -0.12941 -0.31044
v 0.45384 -0.12941 -0.16518
v 0.43301 -0.25000 0.00000
v 0.40690 -0.25000 0.14810
v 0.33171 -0.25000 0.27834
v 0.21651 -0.25000 0.37500
v 0.07519 -0.25000 0.42643
v -0.07519 -0.25000 0.42643
v -0.21651 -0.25000 0.37500
v -0.33171 -0.25000 0.27834
v -0.40690 -0.25000 0.14810
v -0.43301 -0.25000 0.00000
v -0.40690 -0.25000 -0.14810
v -0.33171 -0.25000 -0.27834
v -0.21651 -0.25000 -0.37500
v -0.07519 -0.25000 -0.42643
v 0.07519 -0.25000 -0.42643
v 0.21651 -0.25000 -0.37500
v 0.33171 -0.25000 -0.27834
v 0.40690 -0.25000 -0.14810
v 0.35355 -0.35355 0.00000
v 0.33223 -0.35355 0.12092
v 0.27084 -0.35355 0.22726
v 0.17678 -0.35355 0.30619
v 0.06139 -0.35355 0.34818
v -0.06139 -0.35355 0.34818
v -0.17678 -0.35355 0.30619
v -0.27084 -0.35355 0.22726
v -0.33223 -0.35355 0.12092
v -0.35355 -0.35355 0.00000
v -0.33223 -0.35355 -0.12092
v -0.27084 -0.35355 -0.22726
v -0.17678 -0.35355 -0.30619
v -0.06139 -0.35355 -0.34818
v 0.06139 -0.35355 -0.34818
v 0.17678 -0.35355 -0.30619
v 0.27084 -0.35355 -0.22726
v 0.33223 -0.35355 -0.12092
v 0.25000 -0.43301 0.00000
v 0.23492 -0.43301 0.08551
v 0.19151 -0.43301 0.16070
v 0.12500 -0.43301 0.21651
v 0.04341 -0.43301 0.24620
v -0.04341 -0.43301 0.24620
v -0.12500 -0.43301 0.21651
v -0.19151 -0.43301 0.16070
v -0.23492 -0.43301 0.08551
v -0.25000 -0.43301 0.00000
v -0.23492 -0.43301 -0.08551
v -0.19151 -0.43301 -0.16070
v -0.12500 -0.43301 -0.21651
v -0.04341 -0.43301 -0.24620
v 0.04341 -0.43301 -0.24620
v 0.12500 -0.43301 -0.21651
v 0.19151 -0.43301 -0.16070
v 0.23492 -0.43301 -0.08551
v 0.12941 -0.48296 0.00000
v 0.12161 -0.48296 0.04426
v 0.09913 -0.48296 0.08318
v 0.06470 -0.48296 0.11207
v 0.02247 -0.48296 0.12744
v -0.02247 -0.48296 0.12744
v -0.06470 -0.48296 0.11207
v -0.09913 -0.48296 0.08318
v -0.12161 -0.48296 0.04426
v -0.12941 -0.48296 0.00000
v -0.12161 -0.48296 -0.04426
v -0.09913 -0.48296 -0.08318
v -0.06470 -0.48296 -0.11207
v -0.02247 -0.48296 -0.12744
v 0.02247 -0.48296 -0.12744
v 0.06470 -0.48296 -0.11207
v 0.09913 -0.48296 -0.08318
v 0.12161 -0.48296 -0.04426
v 0.00000 0.50000 0.00000
v 0.00000 -0.50000 0.00000
s off
f 199 2 1
f 199 3 2
f 199 4 3
f 199 5 4
f 199 6 5
f 199 7 6
f 199 8 7
f 199 9 8
f 199 10 9
f 199 11 10
f 199 12 11
f 199 13 12
f 199 14 13
f 199 15 14
f 199 16 15
f 199 17 16
f 199 18 17
f 199 1 18
f 1 2 20 19
f 2 3 21 20
f 3 4 22 21
f 4 5 23 22
f 5 6 24 23
f 6 7 25 24
f 7 8 26 25
f 8 9 27 26
f 9 10 28 27
f 10 11 29 28
f 11 12 30 29
f 12 13 31 30
f 13 14 32 31
f 14 15 33 32
f 15 16 34 33
f 16 17 35 34
f 17 18 36 35
f 18 1 19 36
f 19 20 38 37
f 20 21 39 38
f 21 22 40 39
f 22 23 41 40
f 23 24 42 41
f 24 25 43 42
f 25 26 44 43
f 26 27 45 44
f 27 28 46 45
f 28 29 47 46
f 29 30 48 47
f 30 31 49 48
f 31 32 50 49
f 32 33 51 50
f 33 34 52 51
f 34 35 53 52
f 35 36 54 53
f 36 19 37 54
f 37 38 56 55
f 38 39 57 56
f 39 40 58 57
f 40 41 59 58
f 41 42 60 59
f 42 43 61 60
f 43 44 62 61
f 44 45 63 62
f 45 46 64 63
f 46 47 65 64
f 47 48 66 65
f 48 49 67 66
f 49 50 68 67
f 50 51 69 68
f 51 52 70 69
f 52 53 71 70
f 53 54 72 71
f 54 37 55 72
f 55 56 74 73
f 56 57 75 74
f 57 58 76 75
f 58 59 77 76
f 59 60 78 77
f 60 61 79 78
f 61 62 80 79
f 62 63 81 80
f 63 64 82 81
f 64 65 83 82
f 65 66 84 83
f 66 67 85 84
f 67 68 86 85
f 68 69 87 86
f 69 70 88 87
f 70 71 89 88
f 71 72 90 89
f 72 55 73 90
f 73 74 92 91
f 74 75 93 92
f 75 76 94 93
f 76 77 95 94
f 77 78 96 95
f 78 79 97 96
f 79 80 98 97
f 80 81 99 98
f 81 82 100 99
f 82 83 101 100
f 83 84 102 101
f 84 85 103 102
f 85 86 104 103
f 86 87 105 104
f 87 88 106 105
f 88 89 107 106
f 89 90 108 107
f 90 73 91 108
f 91 92 110 109
f 92 93 111 110
f 93 94 112 111
f 94 95 113 112
f 95 96 114 113
f 96 97 115 114
f 97 98 116 115
f 98 99 117 116
f 99 100 118 117
f 100 101 119 118
f 101 102 120 119
f 102 103 121 120
f 103 104 122 121
f 104 105 123 122
f 105 106 124 123
f 106 107 125 124
f 107 108 126 125
f 108 91 109 126
f 109 110 128 127
f 110 111 129 128
f 111 112 130 129
f 112 113 131 130
f 113 114 132 131
f 114 115 133 132
f 115 116 134 133
f 116 117 135 134
f 117 118 136 135
f 118 119 137 136
f 119 120 138 137
f 120 121 139 138
f 121 122 140 139
f 122 123 141 140
f 123 124 142 141
f 124 125 143 142
f 125 126 144 143
f 126 109 127 144
f 127 128 146 145
f 128 129 147 146
f 129 130 148 147
f 130 131 149 148
f 131 132 150 149
f 132 133 151 150
f 133 134 152 151
f 134 135 153 152
f 135 136 154 153
f 136 137 155 154
f 137 138 156 155
f 138 139 157 156
f 139 140 158 157
f 140 141 159 158
f 141 142 160 159
f 142 143 161 160
f 143 144 162 161
f 144 127 145 162
f 145 146 164 163
f 146 147 165 164
f 147 148 166 165
f 148 149 167 166
f 149 150 168 167
f 150 151 169 168
f 151 152 170 169
f 152 153 171 170
f 153 154 172 171
f 154 155 173 172
f 155 156 174 173
f 156 157 175 174
f 157 158 176 175
f 158 159 177 176
f 159 160 178 177
f 160 161 179 178
f 161 162 180 179
f 162 145 163 180
f 163 164 182 181
f 164 165 183 182
f 165 166 184 183
f 166 167 185 184
f 167 168 186 185
f 168 169 187 186
f 169 170 188 187
f 170 171 189 188
f 171 172 190 189
f 172 173 191 190
f 173 174 192 191
f 174 175 193 192
f 175 176 194 193
f 176 177 195 194
f 177 178 196 195
f 178 179 197 196
f 179 180 198 197
f 180 163 181 198
f 200 181 182
f 200 182 183
f 200 183 184
f 200 184 185
f 200 185 186
f 200 186 187
f 200 187 188
f 200 188 189
f 200 189 190
f 200 190 191
f 200 191 192
f 200 192 193
f 200 193 194
f 200 194 195
f 200 195 196
f 200 196 197
f 200 197 198
f 200 198 181